<svg xmlns="http://www.w3.org/2000/svg" viewBox="0 0 25.22 20"><defs><style>.cls-1{fill:#134c75;}</style></defs><title>image</title><g id="Layer_2" data-name="Layer 2"><g id="Layer_1-2" data-name="Layer 1"><path class="cls-1" d="M24.78,0H.43A.43.43,0,0,0,0,.43V19.57A.43.43,0,0,0,.43,20H24.78a.44.44,0,0,0,.44-.43V.43A.44.44,0,0,0,24.78,0ZM7,4.78A2.42,2.42,0,1,1,4.54,7.2,2.43,2.43,0,0,1,7,4.78Zm16,8.12a.44.44,0,0,1-.62,0L17.42,8.44l-4,4.37,2.09,2.09a.44.44,0,1,1-.62.62L10.42,11,3.33,17.28a.39.39,0,0,1-.29.11.41.41,0,0,1-.32-.15.43.43,0,0,1,0-.61l7.39-6.51a.43.43,0,0,1,.6,0l2.06,2.06,4.26-4.67a.49.49,0,0,1,.3-.14.43.43,0,0,1,.31.12l5.22,4.78A.43.43,0,0,1,22.93,12.9Z"/></g></g></svg>