<svg xmlns="http://www.w3.org/2000/svg" viewBox="0 0 203.02 35.22"><defs><style>.cls-1{fill:#19aa8b;}.cls-2,.cls-3{fill:#fff;}.cls-3,.cls-4{stroke:#363732;stroke-linecap:round;stroke-linejoin:round;stroke-width:3px;}.cls-4{fill:none;}</style></defs><title>vrsvg</title><g id="Layer_2" data-name="Layer 2"><g id="Back"><g id="Logo"><path class="cls-1" d="M39.7,4.88H42a.92.92,0,0,1,.63.21,1.42,1.42,0,0,1,.36.56l6.07,17c.14.38.27.8.39,1.24s.22.92.34,1.4c.08-.48.18-.95.29-1.4a10.06,10.06,0,0,1,.37-1.24l6-17a1.39,1.39,0,0,1,.36-.53.88.88,0,0,1,.63-.24h2.34L51.09,29H48.46Z"/><path class="cls-1" d="M67.05,11.67a6.17,6.17,0,0,1,2.52.51,5.71,5.71,0,0,1,2,1.48,7,7,0,0,1,1.31,2.39,10.42,10.42,0,0,1,.47,3.24,2.18,2.18,0,0,1-.13.94.53.53,0,0,1-.51.23H62.6A10.41,10.41,0,0,0,63,23.27a5.89,5.89,0,0,0,1,2,4,4,0,0,0,1.5,1.2,4.72,4.72,0,0,0,2,.39,5,5,0,0,0,1.73-.26A7.75,7.75,0,0,0,70.41,26c.35-.2.64-.39.88-.56a1.06,1.06,0,0,1,.61-.27.57.57,0,0,1,.51.29l.75,1.09A5.29,5.29,0,0,1,72,27.75a6.9,6.9,0,0,1-1.48.82,8.89,8.89,0,0,1-1.62.48,9.53,9.53,0,0,1-1.67.16,6.94,6.94,0,0,1-2.9-.6A6.41,6.41,0,0,1,62,26.86,8.38,8.38,0,0,1,60.5,24a12.85,12.85,0,0,1-.54-3.9,11.17,11.17,0,0,1,.48-3.33,8.25,8.25,0,0,1,1.41-2.68,6.45,6.45,0,0,1,2.23-1.78A6.68,6.68,0,0,1,67.05,11.67Zm.06,2.2a3.86,3.86,0,0,0-3,1.25,6.28,6.28,0,0,0-1.38,3.48H71a6.74,6.74,0,0,0-.25-1.91,4.4,4.4,0,0,0-.75-1.5,3.44,3.44,0,0,0-1.21-1A3.72,3.72,0,0,0,67.11,13.87Z"/><path class="cls-1" d="M77.36,29v-17h1.53a.8.8,0,0,1,.6.18,1.25,1.25,0,0,1,.22.64l.18,2.66a7.59,7.59,0,0,1,1.93-2.78,3.94,3.94,0,0,1,2.69-1,3.7,3.7,0,0,1,1.14.16,3.58,3.58,0,0,1,.95.44l-.35,2.24c-.07.28-.22.42-.46.42a2.36,2.36,0,0,1-.65-.16,3.53,3.53,0,0,0-1.21-.16,3.23,3.23,0,0,0-2.34.91A6.89,6.89,0,0,0,80,18.13V29Z"/><path class="cls-1" d="M93.62,6.59a2.07,2.07,0,0,1-.16.82,2.23,2.23,0,0,1-.42.67,1.82,1.82,0,0,1-.61.46,1.65,1.65,0,0,1-1.46,0,2,2,0,0,1-.6-.46A2.2,2.2,0,0,1,90,7.41a2.25,2.25,0,0,1-.15-.82A2.31,2.31,0,0,1,90,5.76a2.18,2.18,0,0,1,.41-.69,2,2,0,0,1,.6-.46,1.65,1.65,0,0,1,1.46,0,1.82,1.82,0,0,1,.61.46,2.2,2.2,0,0,1,.42.69A2.12,2.12,0,0,1,93.62,6.59ZM93,11.94V29H90.35v-17Z"/><path class="cls-1" d="M101.94,18.92V29H99.05V4.88h6.07a11.9,11.9,0,0,1,3.53.46,6.35,6.35,0,0,1,2.45,1.34,5.21,5.21,0,0,1,1.43,2.11,7.76,7.76,0,0,1,.47,2.76,7.72,7.72,0,0,1-.36,2.39,6.62,6.62,0,0,1-1,2,6.54,6.54,0,0,1-1.67,1.51,7.72,7.72,0,0,1-2.23.94,3.26,3.26,0,0,1,1,1L114.93,29h-2.58a1.24,1.24,0,0,1-1.17-.69l-5.58-8.61a1.72,1.72,0,0,0-.55-.58,1.8,1.8,0,0,0-.9-.17Zm0-2.37h3a6.63,6.63,0,0,0,2.24-.35,4.35,4.35,0,0,0,1.62-1,4.11,4.11,0,0,0,1-1.51,5.43,5.43,0,0,0,.33-1.93,4.07,4.07,0,0,0-1.26-3.25,5.66,5.66,0,0,0-3.78-1.09h-3.18Z"/><path class="cls-1" d="M124.27,11.67a6.17,6.17,0,0,1,2.52.51,5.67,5.67,0,0,1,2,1.48,6.87,6.87,0,0,1,1.31,2.39,10.13,10.13,0,0,1,.48,3.24,2.14,2.14,0,0,1-.14.94.53.53,0,0,1-.51.23H119.81a10.41,10.41,0,0,0,.39,2.81,5.89,5.89,0,0,0,1,2,4,4,0,0,0,1.5,1.2,4.72,4.72,0,0,0,2,.39,5,5,0,0,0,1.73-.26,7.51,7.51,0,0,0,1.26-.56,8.93,8.93,0,0,0,.87-.56,1.09,1.09,0,0,1,.61-.27.57.57,0,0,1,.51.29l.75,1.09a5.24,5.24,0,0,1-1.18,1.17,7.14,7.14,0,0,1-1.48.82,9.24,9.24,0,0,1-1.63.48,9.42,9.42,0,0,1-1.66.16,7,7,0,0,1-2.91-.6,6.38,6.38,0,0,1-2.29-1.75A8.23,8.23,0,0,1,117.71,24a12.85,12.85,0,0,1-.54-3.9,10.86,10.86,0,0,1,.49-3.33,8,8,0,0,1,1.4-2.68,6.48,6.48,0,0,1,2.24-1.78A6.65,6.65,0,0,1,124.27,11.67Zm.06,2.2a3.89,3.89,0,0,0-3,1.25,6.28,6.28,0,0,0-1.38,3.48h8.27a6.73,6.73,0,0,0-.26-1.91,4.4,4.4,0,0,0-.75-1.5,3.36,3.36,0,0,0-1.21-1A3.64,3.64,0,0,0,124.33,13.87Z"/><path class="cls-1" d="M143.27,14.75a.59.59,0,0,1-.55.37,1,1,0,0,1-.51-.19l-.7-.41a6.55,6.55,0,0,0-1-.42,4.19,4.19,0,0,0-1.35-.19,3.59,3.59,0,0,0-1.22.19,2.68,2.68,0,0,0-.92.53,2.24,2.24,0,0,0-.59.78,2.4,2.4,0,0,0-.2,1,1.71,1.71,0,0,0,.34,1.09,3.05,3.05,0,0,0,.89.76,7.35,7.35,0,0,0,1.26.56l1.45.52c.49.19,1,.39,1.45.62a5,5,0,0,1,1.26.84,3.74,3.74,0,0,1,.89,1.23,4.28,4.28,0,0,1,.34,1.76,6.2,6.2,0,0,1-.38,2.18,4.85,4.85,0,0,1-1.11,1.73,5.2,5.2,0,0,1-1.8,1.15,6.67,6.67,0,0,1-2.46.42,6.89,6.89,0,0,1-2.88-.58,7.18,7.18,0,0,1-2.19-1.49l.63-1.14a1,1,0,0,1,.29-.34.71.71,0,0,1,.43-.12.93.93,0,0,1,.57.24c.2.16.44.33.73.52a4.94,4.94,0,0,0,1,.52,4.24,4.24,0,0,0,1.53.24,3.76,3.76,0,0,0,1.36-.23,2.77,2.77,0,0,0,1-.61,2.42,2.42,0,0,0,.57-.89,3,3,0,0,0,.19-1.08,1.91,1.91,0,0,0-.34-1.17,2.86,2.86,0,0,0-.89-.79,6.48,6.48,0,0,0-1.27-.57l-1.45-.51a15.59,15.59,0,0,1-1.46-.62,5.3,5.3,0,0,1-1.26-.86,4,4,0,0,1-.9-1.29,4.69,4.69,0,0,1-.33-1.86,5,5,0,0,1,.36-1.87,4.56,4.56,0,0,1,1-1.58,5,5,0,0,1,1.69-1.09,6.13,6.13,0,0,1,2.3-.4,6.62,6.62,0,0,1,2.69.53,6.41,6.41,0,0,1,2.06,1.45Z"/><path class="cls-1" d="M150.5,11.94V22.8a4.88,4.88,0,0,0,.8,3,2.8,2.8,0,0,0,2.4,1.06,4.14,4.14,0,0,0,2.2-.62,7,7,0,0,0,1.91-1.73V11.94h2.67V29h-1.59a.7.7,0,0,1-.72-.62L158,26.52a8.75,8.75,0,0,1-2.22,2,5.31,5.31,0,0,1-2.82.75,4.94,4.94,0,0,1-2.2-.46,4.33,4.33,0,0,1-1.6-1.31,5.8,5.8,0,0,1-1-2,10.38,10.38,0,0,1-.32-2.64V11.94Z"/><path class="cls-1" d="M165.47,29v-17h1.59a.7.7,0,0,1,.72.62l.2,1.75a8.28,8.28,0,0,1,1.88-1.9,4.1,4.1,0,0,1,2.42-.74,3.36,3.36,0,0,1,2.5,1,5.49,5.49,0,0,1,1.37,2.59,5.39,5.39,0,0,1,.84-1.6,4.8,4.8,0,0,1,2.53-1.75,5.74,5.74,0,0,1,1.48-.2,5,5,0,0,1,2.14.43,4.28,4.28,0,0,1,1.59,1.25,5.92,5.92,0,0,1,1,2,9.93,9.93,0,0,1,.35,2.75V29H183.4V18.13a5,5,0,0,0-.78-3,2.67,2.67,0,0,0-2.27-1,3,3,0,0,0-1.25.26,3.07,3.07,0,0,0-1,.76,3.62,3.62,0,0,0-.71,1.27,5.33,5.33,0,0,0-.27,1.78V29h-2.67V18.13a5.19,5.19,0,0,0-.73-3.06,2.48,2.48,0,0,0-2.15-1,3.14,3.14,0,0,0-1.83.59,6.26,6.26,0,0,0-1.56,1.63V29Z"/><path class="cls-1" d="M196.72,11.67a6.17,6.17,0,0,1,2.52.51,5.71,5.71,0,0,1,2,1.48,7,7,0,0,1,1.31,2.39,10.42,10.42,0,0,1,.47,3.24,2.18,2.18,0,0,1-.13.94.53.53,0,0,1-.51.23H192.27a10.41,10.41,0,0,0,.39,2.81,5.89,5.89,0,0,0,1,2,4,4,0,0,0,1.5,1.2,4.72,4.72,0,0,0,1.95.39,5,5,0,0,0,1.73-.26,7.75,7.75,0,0,0,1.25-.56c.35-.2.64-.39.88-.56a1.06,1.06,0,0,1,.61-.27.57.57,0,0,1,.51.29l.75,1.09a5.29,5.29,0,0,1-1.19,1.17,6.9,6.9,0,0,1-1.48.82,8.89,8.89,0,0,1-1.62.48,9.53,9.53,0,0,1-1.67.16,6.94,6.94,0,0,1-2.9-.6,6.41,6.41,0,0,1-2.3-1.75,8.38,8.38,0,0,1-1.5-2.85,12.85,12.85,0,0,1-.54-3.9,11.17,11.17,0,0,1,.48-3.33,8.25,8.25,0,0,1,1.41-2.68,6.45,6.45,0,0,1,2.23-1.78A6.68,6.68,0,0,1,196.72,11.67Zm.06,2.2a3.86,3.86,0,0,0-3,1.25,6.28,6.28,0,0,0-1.38,3.48h8.26a6.74,6.74,0,0,0-.25-1.91,4.4,4.4,0,0,0-.75-1.5,3.44,3.44,0,0,0-1.21-1A3.72,3.72,0,0,0,196.78,13.87Z"/><polygon class="cls-2" points="29.7 22.89 22.4 30.41 12.07 30.41 4.77 22.89 4.77 12.27 12.07 4.76 22.4 4.76 29.7 12.27 29.7 22.89"/><path class="cls-3" d="M22.18,5.13,19.7,2.58a3.53,3.53,0,0,0-5.08,0L12.14,5.13"/><path class="cls-3" d="M5,12.44,2.55,15a3.79,3.79,0,0,0,0,5.24L5,22.78"/><path class="cls-3" d="M12.14,30.09l2.48,2.55a3.53,3.53,0,0,0,5.08,0l2.49-2.55"/><path class="cls-3" d="M29.29,22.78l2.48-2.55a3.79,3.79,0,0,0,0-5.24l-2.48-2.55"/><path class="cls-3" d="M12.14,5.13H8.63A3.54,3.54,0,0,0,6.09,6.22,3.7,3.7,0,0,0,5,8.83v3.61"/><path class="cls-3" d="M29.29,12.44V8.83a3.7,3.7,0,0,0-1.06-2.61,3.54,3.54,0,0,0-2.54-1.09H22.18"/><path class="cls-3" d="M22.19,30.09h3.5A3.54,3.54,0,0,0,28.23,29a3.71,3.71,0,0,0,1.06-2.61V22.78"/><path class="cls-3" d="M5,22.78v3.61A3.71,3.71,0,0,0,6.09,29a3.54,3.54,0,0,0,2.54,1.09h3.51"/><line class="cls-4" x1="10.22" y1="17.61" x2="15.2" y2="22.56"/><line class="cls-4" x1="24.21" y1="12.44" x2="15.2" y2="22.56"/></g></g></g></svg>