<?xml version="1.0" encoding="iso-8859-1"?>
<!-- Generator: Adobe Illustrator 19.1.0, SVG Export Plug-In . SVG Version: 6.00 Build 0)  -->
<svg xmlns="http://www.w3.org/2000/svg" xmlns:xlink="http://www.w3.org/1999/xlink" version="1.1" id="Capa_1" x="0px" y="0px" viewBox="0 0 80.244 80.244" style="enable-background:new 0 0 80.244 80.244;" xml:space="preserve" width="512px" height="512px">
<g>
	<g>
		<path d="M39.1,69.156c1.104,0,2-0.896,2-2V36.924l10.023,9.773c0.391,0.391,1.027,0.586,1.539,0.586s1.086-0.195,1.477-0.586    c0.781-0.781,0.812-2.047,0.031-2.828L41.52,31.204c-0.781-0.781-2.039-0.781-2.82,0L26.038,43.87    c-0.781,0.781-0.779,2.047,0.002,2.828s1.798,0.781,2.579,0l8.481-8.73v29.188C37.1,68.26,37.996,69.156,39.1,69.156z" fill="#4d4d4d"/>
		<path d="M15.028,57.775H29.6c1.104,0,2-0.896,2-2s-0.896-2-2-2H15.028c-6.286,0-11.027-4.299-11.027-10.252    c0-5.951,4.741-10.344,11.027-10.344c1.121,0,2.223,0.213,3.275,0.541l0.377,0.141c0.589,0.184,1.232,0.096,1.738-0.258    c0.507-0.354,0.822-0.916,0.853-1.533c0.479-9.512,8.322-16.96,17.854-16.96c7.529,0,14.288,4.721,16.819,11.746    c0.349,0.967,1.373,1.506,2.367,1.263c0.029-0.008,0.125-0.032,0.154-0.041c1.275-0.382,2.595-0.776,3.911-0.776    c7.776,0,13.867,5.771,13.867,13.383c0,7.447-6.091,13.091-13.867,13.091H49.6c-1.104,0-2,0.896-2,2s0.896,2,2,2h12.777    c10.019,0,17.867-7.4,17.867-17.091c0-9.854-7.849-17.478-17.867-17.478c-1.218,0-2.344,0.253-3.379,0.515    c-3.531-7.642-11.295-12.633-19.873-12.633c-10.853,0-19.916,7.907-21.598,18.381c-0.822-0.138-1.657-0.201-2.5-0.201    C6.6,29.269,0,35.424,0,43.521C0,51.619,6.601,57.775,15.028,57.775z" fill="#4d4d4d"/>
	</g>
</g>
<g>
</g>
<g>
</g>
<g>
</g>
<g>
</g>
<g>
</g>
<g>
</g>
<g>
</g>
<g>
</g>
<g>
</g>
<g>
</g>
<g>
</g>
<g>
</g>
<g>
</g>
<g>
</g>
<g>
</g>
</svg>
