<svg xmlns="http://www.w3.org/2000/svg" viewBox="0 0 24.17 20"><defs><style>.cls-1{fill:#dcd6cd;}.cls-2{fill:#e8e3d9;}.cls-3{fill:#efebde;}.cls-4{fill:#ed7161;}.cls-5{fill:#fff;}</style></defs><title>email</title><g id="Layer_2" data-name="Layer 2"><g id="Layer_1-2" data-name="Layer 1"><polygon class="cls-1" points="0 0 0 16.25 11.67 16.25 23.33 16.25 23.33 0 0 0"/><path class="cls-2" d="M12.9,9.21a1.9,1.9,0,0,1-2.47,0l-.87-.77C6.84,10.87,0,16.25,0,16.25H23.33s-6.84-5.38-9.56-7.81Z"/><path class="cls-3" d="M0,0,10.43,9.21a1.9,1.9,0,0,0,2.47,0L23.33,0Z"/><circle class="cls-4" cx="19.17" cy="15" r="5"/><path class="cls-5" d="M19.76,15l1.47-1.47a.42.42,0,0,0,0-.59.41.41,0,0,0-.59,0l-1.47,1.47-1.48-1.47a.4.4,0,0,0-.59,0,.42.42,0,0,0,0,.59L18.58,15,17.1,16.47a.42.42,0,0,0,0,.59.44.44,0,0,0,.3.12.4.4,0,0,0,.29-.12l1.48-1.47,1.47,1.47a.42.42,0,0,0,.29.12.42.42,0,0,0,.3-.71Z"/></g></g></svg>