<svg xmlns="http://www.w3.org/2000/svg" viewBox="0 0 17.5 20"><defs><style>.cls-1{fill:#e2574c;}.cls-2{fill:#b53629;}.cls-3{fill:#fff;}</style></defs><title>pdf</title><g id="Layer_2" data-name="Layer 2"><g id="Layer_1-2" data-name="Layer 1"><path class="cls-1" d="M1.25,0H11.87L17.5,5.61V18.75A1.25,1.25,0,0,1,16.25,20h-15A1.25,1.25,0,0,1,0,18.75V1.25A1.25,1.25,0,0,1,1.25,0Z"/><path class="cls-2" d="M17.48,5.62H13.13a1.24,1.24,0,0,1-1.25-1.25V0Z"/><path class="cls-3" d="M12.81,9.48a.33.33,0,0,0,.31-.36.32.32,0,0,0-.31-.36H11.62a.37.37,0,0,0-.36.4v2.93c0,.27.14.41.35.41s.35-.14.35-.41v-.8h.72a.34.34,0,0,0,.33-.37.33.33,0,0,0-.33-.35H12V9.48Zm-4-.72H7.91a.39.39,0,0,0-.41.4V12.1a.38.38,0,0,0,.42.39h.91a1.69,1.69,0,0,0,1.8-1.81A1.74,1.74,0,0,0,8.78,8.76Zm0,3H8.29V9.48h.48c.73,0,1,.49,1,1.16S9.5,11.77,8.82,11.77Zm-3.19-3H4.76a.36.36,0,0,0-.38.4v2.93a.36.36,0,0,0,.37.41c.21,0,.36-.14.36-.41v-.85h.55a1.24,1.24,0,0,0,0-2.48Zm0,1.79h-.5V9.45h.5a.51.51,0,0,1,.51.55A.52.52,0,0,1,5.61,10.55Z"/></g></g></svg>